<svg width="103" height="39" viewBox="0 0 103 39" fill="none" xmlns="http://www.w3.org/2000/svg">
<path d="M0.962697 19.5C0.962697 26.8734 0.981771 32.9062 1.0072 32.9062C1.04535 32.9062 6.28055 31.9873 6.92271 31.8654L7.25587 31.8045V21.9619H11.2385V21.0624C11.2385 20.5701 11.2576 19.2867 11.283 18.2045L11.3212 16.2472H7.25714V11.9303H9.60198C10.8927 11.9303 11.9456 11.9182 11.9456 11.8999C11.9456 11.8328 12.4606 6.63975 12.4923 6.37894L12.5305 6.09375H0.961426V19.5H0.962697ZM97.0299 6.87863L91.9053 7.27959V31.5022L92.1164 31.5327C92.3034 31.5632 102.226 32.2432 102.424 32.2372C102.483 32.2372 102.502 31.5937 102.502 29.2281V26.2177H98.1349V21.8412H101.861V16.6128H98.0052V13.1467L98.154 13.1223C98.2303 13.104 98.8852 13.0796 99.6113 13.0552C100.336 13.037 101.281 13.0065 101.718 12.9821L102.502 12.9456V6.45938L102.329 6.46547C102.227 6.47156 99.8427 6.65316 97.0299 6.87863ZM64.1271 7.71834C64.192 8.3265 64.9244 17.4891 64.9117 17.5012C64.9054 17.5134 63.9606 15.3185 62.811 12.625C62.1108 10.965 61.3999 9.30909 60.6785 7.65741C60.6404 7.59037 58.8678 7.90116 55.9583 8.48494L55.6824 8.53856V29.4413H61.3983L61.3665 29.0038C61.3029 28.1897 61.0638 21.4524 61.0893 21.1855C61.1096 20.9479 61.3016 21.3623 63.1264 25.5328C64.2301 28.0678 65.1686 30.1653 65.194 30.2018C65.2322 30.2384 66.1248 30.1836 67.6406 30.0617C68.958 29.952 70.0363 29.8545 70.0363 29.8496C70.0426 29.8435 70.0108 25.4597 69.9663 20.1094C69.9206 14.7591 69.8824 9.70613 69.8824 8.8725L69.8761 7.37222H64.0903L64.1271 7.71834ZM18.9139 7.74272C15.0737 7.98647 12.9603 10.4727 12.2914 15.5183C12.1566 16.564 12.1007 20.1155 12.1961 21.3562C12.5165 25.3805 13.666 27.9947 15.7082 29.3268C16.8069 30.0373 18.4574 30.4212 20.0889 30.3298C21.9455 30.2323 23.2094 29.7326 24.3462 28.6577C25.2783 27.7765 25.7857 26.949 26.274 25.5377C26.9543 23.5682 27.262 20.6261 27.1082 17.5622C26.9352 14.1326 26.3897 11.9986 25.2643 10.363C24.1924 8.80669 22.4973 7.87678 20.5187 7.761C20.2046 7.74272 19.8702 7.72444 19.7812 7.71225C19.4925 7.71225 19.2026 7.722 18.9139 7.74272ZM19.8193 12.5214C20.2873 13.0016 20.4869 14.9175 20.4869 19.0149C20.4869 24.0606 20.1525 26.158 19.4213 25.7083C19.106 25.5084 18.8682 24.5298 18.7525 22.9052C18.6698 21.7206 18.6698 16.291 18.7525 15.1539C18.8745 13.5488 19.0932 12.6616 19.4213 12.4483C19.6006 12.3264 19.6324 12.3325 19.8193 12.5214ZM27.936 18.7956V29.8679H33.8261L33.8642 29.0952C33.8896 28.6638 33.9405 27.2647 33.9799 25.9752C34.0181 24.687 34.0689 23.556 34.0956 23.4646C34.1274 23.3378 34.4034 24.1593 35.2528 26.9307C35.8683 28.9307 36.3883 30.5906 36.4138 30.615C36.4646 30.6698 42.4895 30.2201 42.5556 30.1592C42.5734 30.1348 41.9071 28.147 41.0704 25.7266L39.5546 21.3367L39.8764 21.0697C40.942 20.1886 41.8219 18.486 42.0724 16.8017C42.1818 16.0656 42.1106 14.2423 41.9453 13.5671C41.3018 10.9224 39.5991 8.86762 37.4311 8.10103C36.485 7.77197 36.5625 7.77928 32.0979 7.75491L27.936 7.73053V18.7968V18.7956ZM34.5585 12.9712C35.0137 13.1844 35.3863 13.7317 35.586 14.4848C35.7207 14.9894 35.7004 16.5884 35.5542 17.0991C35.277 18.0607 34.7912 18.6201 34.0575 18.8321L33.91 18.8687V12.7822L34.1211 12.8249C34.2304 12.8432 34.4301 12.9102 34.5585 12.9712ZM42.2593 10.6251V13.4526H45.535V29.746H51.6997V14.4251H55.0402V8.77013L54.9004 8.74575C54.7643 8.7165 42.5162 7.79147 42.3433 7.79756C42.2797 7.79756 42.2593 8.40694 42.2593 10.6251ZM71.2227 19.4391V30.4736H77.5807V8.4045H71.2227V19.4391ZM84.8416 9.17109C81.3599 9.34781 78.4632 9.49406 78.4073 9.49406C78.2954 9.50016 78.289 9.67688 78.289 12.3581V15.2149H81.5647V31.2049H87.7955V14.5458H91.2619V11.689C91.2619 10.1144 91.2428 8.83716 91.2161 8.83716C91.1843 8.84325 88.3232 8.9895 84.8416 9.17109Z" fill="white"/>
</svg>
